<?xml version="1.0" standalone="no"?>
<!DOCTYPE svg PUBLIC "-//W3C//DTD SVG 20010904//EN"
 "http://www.w3.org/TR/2001/REC-SVG-20010904/DTD/svg10.dtd">
<svg version="1.0" xmlns="http://www.w3.org/2000/svg"
 width="412.000000pt" height="412.000000pt" viewBox="0 0 412.000000 412.000000"
 preserveAspectRatio="xMidYMid meet">
<metadata>
Created by potrace 1.11, written by Peter Selinger 2001-2013
</metadata>
<g transform="translate(0.000000,412.000000) scale(0.100000,-0.100000)"
fill="#000000" stroke="none">
<path d="M1860 4055 c-376 -42 -681 -160 -995 -383 -101 -72 -334 -302 -414
-409 -189 -252 -306 -513 -377 -843 -19 -83 -34 -254 -34 -375 -1 -525 209
-1032 585 -1411 233 -236 499 -401 820 -509 100 -34 209 -58 386 -85 85 -13
363 -13 448 0 289 44 471 99 676 203 538 273 921 754 1067 1342 27 110 58 355
58 465 0 128 -32 364 -69 500 -200 746 -810 1325 -1556 1475 -207 42 -403 52
-595 30z m1338 -1141 c234 -48 440 -188 570 -387 127 -195 167 -420 127 -718
-142 -1067 -1155 -1792 -2208 -1578 -489 99 -937 411 -1199 835 -95 154 -130
237 -74 175 10 -11 49 -40 87 -66 420 -282 970 -229 1329 128 88 87 146 166
198 272 76 154 99 246 112 455 15 232 56 367 159 519 130 191 351 332 579 371
82 13 239 11 320 -6z m-1774 -574 c-5 -144 -20 -165 -40 -56 -24 129 -53 146
-239 146 -175 0 -165 14 -165 -240 l0 -200 69 0 c100 0 126 25 146 143 4 23
11 37 20 37 13 0 15 -30 15 -190 0 -104 0 -193 0 -197 0 -5 -6 -8 -12 -8 -8 0
-16 22 -20 55 -14 96 -54 130 -155 130 l-63 0 0 -205 c0 -261 -11 -245 168
-245 194 0 234 27 265 180 21 103 37 89 37 -32 0 -56 3 -120 6 -140 l7 -38
-368 0 c-289 0 -366 3 -363 13 3 6 21 13 40 15 20 2 44 12 54 24 18 19 19 47
22 417 2 263 0 408 -8 433 -10 37 -16 41 -77 53 -30 6 -40 15 -29 26 2 2 160
4 350 4 l345 0 -5 -125z"/>
<path d="M2620 2440 c0 -6 11 -15 25 -20 14 -5 33 -23 43 -40 10 -16 97 -230
192 -475 95 -245 178 -445 184 -445 6 0 58 120 115 268 221 570 243 624 273
658 17 19 36 34 44 34 8 0 14 7 14 15 0 13 -21 15 -130 15 -71 0 -130 -4 -130
-9 0 -5 20 -14 44 -20 79 -20 92 -62 52 -177 -30 -86 -214 -563 -226 -584 -7
-12 -10 -11 -18 10 -5 14 -63 169 -130 345 -149 396 -147 388 -77 406 25 6 45
15 45 20 0 5 -72 9 -160 9 -103 0 -160 -4 -160 -10z"/>
</g>
</svg>
